<svg width="21" height="21" viewBox="0 0 21 21" fill="none" xmlns="http://www.w3.org/2000/svg">
<g clip-path="url(#clip0_27_223)">
<g clip-path="url(#clip1_27_223)">
<path d="M10.3008 2.30078C12.9727 2.30078 13.2891 2.3125 14.3399 2.35937C15.3164 2.40234 15.8438 2.5664 16.1953 2.70312C16.6602 2.88281 16.9961 3.10156 17.3438 3.44921C17.6953 3.80077 17.9102 4.1328 18.0899 4.59765C18.2266 4.94921 18.3906 5.48046 18.4336 6.45311C18.4805 7.5078 18.4922 7.8242 18.4922 10.4922C18.4922 13.164 18.4805 13.4804 18.4336 14.5312C18.3906 15.5078 18.2266 16.0351 18.0899 16.3867C17.9102 16.8515 17.6914 17.1875 17.3438 17.5351C16.9922 17.8867 16.6602 18.1015 16.1953 18.2812C15.8438 18.4179 15.3125 18.582 14.3399 18.625C13.2852 18.6718 12.9688 18.6836 10.3008 18.6836C7.62891 18.6836 7.3125 18.6718 6.26172 18.625C5.28516 18.582 4.75781 18.4179 4.40625 18.2812C3.94141 18.1015 3.60547 17.8828 3.25781 17.5351C2.90625 17.1836 2.69141 16.8515 2.51172 16.3867C2.375 16.0351 2.21094 15.5039 2.16797 14.5312C2.12109 13.4765 2.10937 13.1601 2.10937 10.4922C2.10937 7.8203 2.12109 7.50389 2.16797 6.45311C2.21094 5.47655 2.375 4.94921 2.51172 4.59765C2.69141 4.1328 2.91016 3.79687 3.25781 3.44921C3.60937 3.09765 3.94141 2.88281 4.40625 2.70312C4.75781 2.5664 5.28906 2.40234 6.26172 2.35937C7.3125 2.3125 7.62891 2.30078 10.3008 2.30078ZM10.3008 0.5C7.58594 0.5 7.24609 0.511719 6.17969 0.558594C5.11719 0.605469 4.38672 0.777343 3.75391 1.02344C3.09375 1.28125 2.53516 1.62109 1.98047 2.17968C1.42187 2.73437 1.08203 3.29296 0.824219 3.94921C0.578125 4.58593 0.40625 5.31249 0.359375 6.37499C0.3125 7.4453 0.300781 7.78514 0.300781 10.5C0.300781 13.2148 0.3125 13.5547 0.359375 14.6211C0.40625 15.6836 0.578125 16.414 0.824219 17.0468C1.08203 17.707 1.42187 18.2656 1.98047 18.8203C2.53516 19.375 3.09375 19.7187 3.75 19.9726C4.38672 20.2187 5.11328 20.3906 6.17578 20.4375C7.24219 20.4843 7.58203 20.496 10.2969 20.496C13.0117 20.496 13.3516 20.4843 14.418 20.4375C15.4805 20.3906 16.211 20.2187 16.8438 19.9726C17.5 19.7187 18.0586 19.375 18.6133 18.8203C19.168 18.2656 19.5117 17.707 19.7656 17.0507C20.0117 16.414 20.1836 15.6875 20.2305 14.625C20.2774 13.5586 20.2891 13.2187 20.2891 10.5039C20.2891 7.78905 20.2774 7.4492 20.2305 6.3828C20.1836 5.3203 20.0117 4.58983 19.7656 3.95702C19.5196 3.29296 19.1797 2.73437 18.6211 2.17968C18.0664 1.625 17.5078 1.28125 16.8516 1.02734C16.2149 0.781249 15.4883 0.609375 14.4258 0.5625C13.3555 0.511719 13.0156 0.5 10.3008 0.5Z" />
</g>
<path d="M10.3008 5.36328C7.46484 5.36328 5.16406 7.66406 5.16406 10.5C5.16406 13.3359 7.46484 15.6367 10.3008 15.6367C13.1367 15.6367 15.4375 13.3359 15.4375 10.5C15.4375 7.66406 13.1367 5.36328 10.3008 5.36328ZM10.3008 13.832C8.46094 13.832 6.96875 12.3398 6.96875 10.5C6.96875 8.66015 8.46094 7.16796 10.3008 7.16796C12.1406 7.16796 13.6328 8.66015 13.6328 10.5C13.6328 12.3398 12.1406 13.832 10.3008 13.832Z" />
<g clip-path="url(#clip2_27_223)">
<path d="M16.8398 5.16016C16.8398 5.82422 16.3008 6.35937 15.6406 6.35937C14.9766 6.35937 14.4414 5.82031 14.4414 5.16016C14.4414 4.49609 14.9805 3.96094 15.6406 3.96094C16.3008 3.96094 16.8398 4.5 16.8398 5.16016Z" />
</g>
</g>
<defs>
<clipPath id="clip0_27_223">
<rect width="20" height="20" fill="white" transform="translate(0.300781 0.5)"/>
</clipPath>
<clipPath id="clip1_27_223">
<rect width="20" height="20" fill="white" transform="translate(0.300781 0.5)"/>
</clipPath>
<clipPath id="clip2_27_223">
<rect width="3" height="3" fill="white" transform="translate(14.3008 3.5)"/>
</clipPath>
</defs>
</svg>
