<svg width="21" height="21" viewBox="0 0 21 21" fill="none" xmlns="http://www.w3.org/2000/svg">
<path d="M18.8203 0.5H1.77734C0.960937 0.5 0.300781 1.14453 0.300781 1.9414V19.0546C0.300781 19.8515 0.960937 20.5 1.77734 20.5H18.8203C19.6367 20.5 20.3008 19.8515 20.3008 19.0586V1.9414C20.3008 1.14453 19.6367 0.5 18.8203 0.5ZM6.23437 17.5429H3.26562V7.99608H6.23437V17.5429ZM4.75 6.6953C3.79687 6.6953 3.02734 5.92577 3.02734 4.97655C3.02734 4.02734 3.79687 3.25781 4.75 3.25781C5.69922 3.25781 6.46875 4.02734 6.46875 4.97655C6.46875 5.92186 5.69922 6.6953 4.75 6.6953ZM17.3438 17.5429H14.3789V12.9023C14.3789 11.7969 14.3594 10.3711 12.836 10.3711C11.293 10.3711 11.0586 11.5781 11.0586 12.8242V17.5429H8.09766V7.99608H10.9414V9.30076H10.9805C11.375 8.55076 12.3438 7.7578 13.7852 7.7578C16.7891 7.7578 17.3438 9.73436 17.3438 12.3047V17.5429Z"
</svg>
