<svg width="21" height="21" viewBox="0 0 21 21" fill="none" xmlns="http://www.w3.org/2000/svg">
<path d="M10.3008 0.5C4.77734 0.5 0.300781 4.97655 0.300781 10.5C0.300781 14.7383 2.9375 18.3554 6.65625 19.8125C6.57031 19.0195 6.48828 17.8086 6.69141 16.9453C6.875 16.164 7.86328 11.9765 7.86328 11.9765C7.86328 11.9765 7.5625 11.3789 7.5625 10.4922C7.5625 9.10154 8.36719 8.06248 9.37109 8.06248C10.2227 8.06248 10.6367 8.70311 10.6367 9.47264C10.6367 10.332 10.0898 11.6133 9.80859 12.8008C9.57422 13.7968 10.3086 14.6093 11.2891 14.6093C13.0664 14.6093 14.4336 12.7343 14.4336 10.0312C14.4336 7.6367 12.7149 5.96093 10.2578 5.96093C7.41406 5.96093 5.74219 8.09373 5.74219 10.3008C5.74219 11.1601 6.07422 12.082 6.48828 12.582C6.57031 12.6797 6.58203 12.7695 6.55859 12.8672C6.48437 13.1836 6.3125 13.8633 6.28125 14C6.23828 14.1836 6.13672 14.2226 5.94531 14.1328C4.69531 13.5508 3.91406 11.7265 3.91406 10.2578C3.91406 7.10155 6.20703 4.20702 10.5196 4.20702C13.9883 4.20702 16.6836 6.67967 16.6836 9.98435C16.6836 13.4297 14.5117 16.2031 11.4961 16.2031C10.4844 16.2031 9.53125 15.6757 9.20312 15.0547C9.20312 15.0547 8.70312 16.9648 8.58203 17.4336C8.35547 18.3007 7.74609 19.3906 7.33984 20.0546C8.27734 20.3437 9.26953 20.5 10.3008 20.5C15.8242 20.5 20.3008 16.0234 20.3008 10.5C20.3008 4.97655 15.8242 0.5 10.3008 0.5Z" />
</svg>
