<svg width="21" height="21" viewBox="0 0 21 21" fill="none" xmlns="http://www.w3.org/2000/svg">
<path d="M0.800781 20.48L2.20661 15.3492C1.33911 13.8474 0.883281 12.1449 0.884114 10.3992C0.886614 4.94137 5.33244 0.5 10.7949 0.5C13.4458 0.500832 15.9341 1.5323 17.8058 3.40375C19.6766 5.27521 20.7066 7.76271 20.7058 10.4084C20.7033 15.8671 16.2574 20.3085 10.7949 20.3085C9.13659 20.3077 7.50243 19.8922 6.05493 19.103L0.800781 20.48ZM6.29827 17.3107C7.69493 18.1389 9.02826 18.6351 10.7916 18.6359C15.3316 18.6359 19.0299 14.9446 19.0324 10.4067C19.0341 5.85962 15.3533 2.17332 10.7983 2.17166C6.25493 2.17166 2.55911 5.86295 2.55744 10.4001C2.55661 12.2523 3.09994 13.6393 4.01244 15.0904L3.17994 18.1274L6.29827 17.3107ZM15.7874 12.7618C15.7258 12.6586 15.5608 12.597 15.3124 12.473C15.0649 12.3489 13.8474 11.7503 13.6199 11.6679C13.3933 11.5855 13.2283 11.5439 13.0624 11.792C12.8974 12.0392 12.4224 12.597 12.2783 12.7618C12.1341 12.9267 11.9891 12.9475 11.7416 12.8235C11.4941 12.6994 10.6958 12.4388 9.74993 11.5955C9.01409 10.9395 8.5166 10.1295 8.37243 9.88142C8.22826 9.63417 8.35743 9.50014 8.48076 9.37692C8.59243 9.2662 8.72826 9.08805 8.85243 8.9432C8.97826 8.80001 9.01909 8.69677 9.10243 8.53111C9.18493 8.36628 9.14409 8.22142 9.0816 8.09737C9.0191 7.97417 8.5241 6.75623 8.31826 6.26088C8.1166 5.77888 7.91243 5.8438 7.76076 5.83631L7.28577 5.82799C7.12077 5.82799 6.85243 5.8896 6.62577 6.13768C6.3991 6.38576 5.7591 6.9835 5.7591 8.20144C5.7591 9.41938 6.6466 10.5957 6.76993 10.7605C6.8941 10.9254 8.51576 13.4246 10.9999 14.496C11.5908 14.7507 12.0524 14.9031 12.4116 15.0171C13.0049 15.2053 13.5449 15.1786 13.9716 15.1154C14.4474 15.0445 15.4366 14.5168 15.6433 13.939C15.8499 13.3604 15.8499 12.8651 15.7874 12.7618Z" />
</svg>
